<?xml version="1.0" encoding="utf-8"?>
<!-- Generator: Adobe Illustrator 26.2.1, SVG Export Plug-In . SVG Version: 6.00 Build 0)  -->
<svg version="1.1" id="Layer_1" xmlns="http://www.w3.org/2000/svg" xmlns:xlink="http://www.w3.org/1999/xlink" x="0px" y="0px"
	 viewBox="0 0 24 24" style="enable-background:new 0 0 24 24;" xml:space="preserve">
<style type="text/css">
	.st0{fill:none;stroke:#FFFFFF;stroke-width:1.5;stroke-linecap:round;stroke-linejoin:round;}
</style>
<path class="st0" d="M9,12h3 M15,12h-3 M12,12V9 M12,12v3"/>
<path class="st0" d="M11.7,1.2c0.2-0.1,0.4-0.1,0.6,0l8.9,5.2c0.2,0.1,0.3,0.3,0.3,0.5v10.3c0,0.2-0.1,0.4-0.3,0.5l-8.9,5.2
	c-0.2,0.1-0.4,0.1-0.6,0l-8.9-5.2c-0.2-0.1-0.3-0.3-0.3-0.5V6.8c0-0.2,0.1-0.4,0.3-0.5L11.7,1.2z"/>
</svg>
