<?xml version="1.0"?>
<svg version="1.1" id="圖層_1" xmlns="http://www.w3.org/2000/svg" x="0" y="0" viewBox="0 0 100 100" xml:space="preserve"><path d="M45.7 10.2L17.6 26.4c-2.7 1.5-4.3 4.4-4.3 7.4v32.4c0 3.1 1.6 5.9 4.3 7.4l28.1 16.2c2.7 1.5 5.9 1.5 8.6 0l28.1-16.2c2.7-1.5 4.3-4.4 4.3-7.4V33.8c0-3.1-1.6-5.9-4.3-7.4L54.3 10.2c-2.7-1.6-5.9-1.6-8.6 0z" fill="none" stroke="#333" stroke-width="8" stroke-miterlimit="10"/><g><path fill="#abbd81" d="M45.3 70L25 49.7l6.6-6.6 13.7 13.8 23.1-23.1 6.6 6.5z"/></g><metadata xmlns:d="https://loading.io/stock/"><d:name>ok</d:name><d:tags>ok,confirm,ready,positive,check,right,correct,affirmative,success,hexagon,form</d:tags><d:license>by</d:license><d:slug>qfwolq</d:slug></metadata></svg>